P2
24 24
20
  0   0   1   2   0   2  3  4   5  6 0 0 0 0 0 0 0 0 0 0 0 0 0 0
  0   0   0   4   3   3  3  6   7  7 0 0 0 0 0 0 0 0 0 0 0 0 0 0
  1   4   3   7   5   6  6  9  10  7 0 0 0 0 0 0 0 0 0 0 0 0 0 0
  3   2   5   7   8  10 11 12  12  9 0 0 0 0 0 0 0 0 0 0 0 0 0 0
  1   2   3   7  10  13 16 15  13 11 0 0 0 0 0 0 0 0 0 0 0 0 0 0
  3   3   3   7  12  13 16 16  16 13 0 0 0 0 0 0 0 0 0 0 0 0 0 0
  2   4   5  10  15  16 19 18  16 14 0 0 0 0 0 0 0 0 0 0 0 0 0 0
  3   3   7  15  19  19 19 19  17 15 0 0 0 0 0 0 0 0 0 0 0 0 0 0
  2   3   9  18  19  19 19 18  16 14 0 0 0 0 0 0 0 0 0 0 0 0 0 0
  2   2  10  19  19  19 19 18  16 14 0 0 0 0 0 0 0 0 0 0 0 0 0 0
  0   0   0   0   0   0  0  0  0  0  0 0 0 0 0 0 0 0 0 0 0 0 0 0
  0   0   0   0   0   0  0  0  0  0  0 0 0 0 0 0 0 0 0 0 0 0 0 0
  0   0   0   0   0   0  0  0  0  0  0 0 0 0 0 0 0 0 0 0 0 0 0 0
  0   0   0   0   0   0  0  0  0  0  0 0 0 0 0 0 0 0 0 0 0 0 0 0
  0   0   0   0   0   0  0  0  0  0  0 0 0 0 0 0 0 0 0 0 0 0 0 0
  0   0   0   0   0   0  0  0  0  0  0 0 0 0 0 0 0 0 0 0 0 0 0 0
  0   0   0   0   0   0  0  0  0  0  0 0 0 0 0 0 0 0 0 0 0 0 0 0
  0   0   0   0   0   0  0  0  0  0  0 0 0 0 0 0 0 0 0 0 0 0 0 0
  0   0   0   0   0   0  0  0  0  0  0 0 0 0 0 0 0 0 0 0 0 0 0 0
  0   0   0   0   0   0  0  0  0  0  0 0 0 0 0 0 0 0 0 0 0 0 0 0
  0   0   0   0   0   0  0  0  0  0  0 0 0 0 0 0 0 0 0 0 0 0 0 0
  0   0   0   0   0   0  0  0  0  0  0 0 0 0 0 0 0 0 0 0 0 0 0 0
  0   0   0   0   0   0  0  0  0  0  0 0 0 0 0 0 0 0 0 0 0 0 0 0
  0   0   0   0   0   0  0  0  0  0  0 0 0 0 0 0 0 0 0 0 0 0 0 0  
