P2
8 8
255
0 35 174 233 248 204 86 0
0 204 113 16 5 53 172 0 
0 241 27 0 0 0 0 0
0 134 234 151 93 24 0 0
0 0 45 116 170 237 112 0 
0 0 0 0 0 32 239 0 
0 182 68 10 11 104 202 0 
0 73 191 246 234 172 32 0 