P2
5 5
20
  0   0   1   2   0  
  0   0   0   4   3  
  1   4   3   7   5  
  3   2   5   7   8  
  1   2   3   7  10  
  
  
  
  
  
